<?xml version="1.0" encoding="UTF-8"?>
<svg width="49px" height="11px" viewBox="0 0 49 11" version="1.1" xmlns="http://www.w3.org/2000/svg" xmlns:xlink="http://www.w3.org/1999/xlink">
    <title>Plain White Logo</title>
    <g id="Project-Pages" stroke="none" stroke-width="1" fill="none" fill-rule="evenodd">
        <g id="Profile-Dark-Version" transform="translate(-744, -2775)" fill="#FCFCFC" fill-rule="nonzero">
            <g id="Powered-by-BLOCO" transform="translate(648, 2775)">
                <g id="Plain-White-Logo" transform="translate(96, 0)">
                    <g id="bloco-logo-curved-colour-2.0" transform="translate(0, 0)">
                        <path d="M43.3961267,0 C40.4068312,0 37.9766025,2.3598838 37.9766025,5.46802343 C37.9766025,8.57616306 40.3954217,10.8900003 43.3961267,10.8900003 C46.3854221,10.8900003 48.8270604,8.53011655 48.8270604,5.46802343 C48.8270604,2.34837217 46.3854221,0 43.3961267,0 Z M36.8352872,0 L33.560943,0 C30.6528813,0 28.2886937,2.3598838 28.2886937,5.46802343 C28.2886937,8.57616306 30.6417818,10.8900003 33.560943,10.8900003 L36.8352872,10.8900003 C37.0350777,10.8900003 37.2015698,10.7173259 37.2015698,10.5101166 L37.2015698,0.391395361 C37.2015698,0.161162796 37.0350777,0 36.8352872,0 Z M22.4702437,0 C19.4809482,0 17.0507195,2.3598838 17.0507195,5.46802343 C17.0507195,8.57616306 19.4695387,10.8900003 22.4702437,10.8900003 C25.4595391,10.8900003 27.9011774,8.53011655 27.9011774,5.46802343 C27.9011774,2.34837217 25.4595391,0 22.4702437,0 Z M9.4300779,0.102269143 C9.25018162,-0.104744889 8.9128761,0.0217636859 8.9128761,0.309283174 L8.9128761,10.5794793 C8.9128761,10.751991 9.04779831,10.8900003 9.21645107,10.8900003 L18.3012132,10.8900003 C18.5598141,10.8900003 18.6947363,10.5794793 18.5260835,10.383966 L9.4300779,0.102269143 Z M6.90749201,4.91364129 C8.99580355,3.4395489 7.722163,0 5.0601395,0 L0.458969569,0 C0.206536306,0 0,0.20568731 0,0.457082911 L0,10.4329174 C0,10.684313 0.206536306,10.8900003 0.458969569,10.8900003 L5.02571678,10.8900003 C7.32056463,10.8900003 8.52535975,9.13023114 8.52535975,7.38188901 C8.52535975,6.45629611 8.06639018,5.50784907 6.90749201,4.91364129 Z" id="Shape"></path>
                    </g>
                </g>
            </g>
        </g>
    </g>
</svg>