<?xml version="1.0" encoding="UTF-8"?>
<svg width="21px" height="28px" viewBox="0 0 21 28" version="1.1" xmlns="http://www.w3.org/2000/svg" xmlns:xlink="http://www.w3.org/1999/xlink">
    <title>icon-app</title>
    <defs>
        <linearGradient x1="71.0176961%" y1="16.382105%" x2="18.9185754%" y2="85.5197752%" id="linearGradient-1">
            <stop stop-color="#919191" offset="0%"></stop>
            <stop stop-color="#5C5C5C" offset="100%"></stop>
        </linearGradient>
    </defs>
    <g id="Project-Pages" stroke="none" stroke-width="1" fill="none" fill-rule="evenodd">
        <g id="Profile-Dark-Version" transform="translate(-602, -2675)" fill="url(#linearGradient-1)" fill-rule="nonzero">
            <g id="Bloco-Button-Create" transform="translate(576, 2650)">
                <g id="icon-app" transform="translate(26, 25)">
                    <path d="M4.65563488,28 C3.55190303,28 2.5010094,27.6006051 1.66146869,26.8744327 L1.11547368,26.3177005 C0.399222159,25.4523449 0,24.3449319 0,23.2072617 L0,4.22995461 C0.0058709141,1.89409985 1.84346703,0 4.10963987,0 L10.2271324,0 C12.5167889,0 14.7007689,0.883509834 16.3681085,2.49319213 C18.0589318,4.11497731 19.0335035,6.29954614 19.1098254,8.63540091 C19.1450509,9.72465961 18.9924071,10.7897126 18.657765,11.8124054 L18.657765,11.8124054 C18.657765,11.8124054 18.657765,11.8184569 18.657765,11.8184569 C20.0961389,13.5007564 20.9239378,15.6369138 20.9943888,17.8517398 C21.0824525,20.5385779 20.1313644,23.0801815 18.3231229,25.01059 C16.5148814,26.9409985 14.0843229,28 11.4776371,28 L4.66150579,28 L4.65563488,28 Z M2.36597838,26.2934947 C3.02352076,26.8139183 3.82783599,27.0922844 4.65563488,27.0922844 L11.4717661,27.0922844 C13.8318736,27.0922844 16.0393373,26.1301059 17.6831933,24.3751891 C19.3270492,22.6263238 20.1842027,20.3146747 20.1078808,17.8759455 C20.0491716,16.0302572 19.3975002,14.2329803 18.2761556,12.7685325 C18.2409301,12.8472012 18.2057046,12.9198185 18.1704791,12.9863843 C18.1587373,13.0045386 18.1528664,13.0287443 18.1411246,13.0468986 L18.1235118,13.0832073 C18.0941572,13.1497731 18.0589318,13.2102874 18.0237063,13.2708018 C18.0119644,13.2950076 17.9943517,13.3192133 17.9826099,13.3494705 L17.9591262,13.3857791 C17.9297716,13.4402421 17.9004171,13.494705 17.8651916,13.5491679 C17.8475789,13.5794251 17.8299661,13.6036309 17.8123534,13.633888 L17.7947406,13.6641452 C17.7653861,13.7186082 17.7301606,13.7730711 17.6949351,13.8214826 C17.6714514,13.8517398 17.6538387,13.8880484 17.630355,13.9183056 L17.6186132,13.9364599 C17.5833877,13.9848714 17.5540331,14.0393343 17.5188077,14.0877458 C17.495324,14.1240545 17.4718403,14.1543116 17.4483567,14.1906203 L17.4483567,14.2027231 C17.4072603,14.2511346 17.3720348,14.2995461 17.3368093,14.3479576 C17.3074548,14.3842663 17.2781002,14.4205749 17.2546165,14.4629349 C17.219391,14.5113464 17.1841656,14.5597579 17.1430692,14.602118 C17.1137146,14.6384266 17.08436,14.6747352 17.0550054,14.7110439 C17.01978,14.7594554 16.9786836,14.8018154 16.9375872,14.8502269 C16.9082326,14.8865356 16.878878,14.9228442 16.8436525,14.9591528 C16.8025561,15.0015129 16.7614597,15.0499244 16.7203633,15.0922844 C16.6910088,15.128593 16.6557833,15.1588502 16.6264287,15.1951589 C16.5853323,15.2375189 16.5442359,15.279879 16.4972686,15.322239 L16.4796559,15.3403933 C16.4503013,15.3645991 16.4268176,15.3948563 16.3974631,15.419062 C16.3504958,15.4614221 16.3093994,15.5037821 16.262432,15.5461422 L16.2389484,15.570348 C16.2154647,15.5945537 16.1919811,15.612708 16.1684974,15.6369138 C16.1215301,15.6792738 16.0745628,15.7216339 16.0275955,15.7639939 L15.99237,15.7942511 C15.9688863,15.8124054 15.9512736,15.8305598 15.9277899,15.8487141 C15.8749517,15.8971256 15.8162426,15.9394856 15.7575334,15.9878971 L15.7281789,16.0121029 C15.7105661,16.0242057 15.6929534,16.0363086 15.6812115,16.0544629 C15.5931478,16.1210287 15.510955,16.1875946 15.4228913,16.2481089 C13.9551628,17.3131619 12.2291141,17.8759455 10.4326143,17.8759455 L7.27993348,17.8759455 L2.36010747,26.2934947 L2.36597838,26.2934947 Z M0.886508028,23.2072617 C0.886508028,23.8305598 1.02740997,24.429652 1.30334293,24.9803328 L4.71434402,13.3373676 L0.886508028,13.3373676 L0.886508028,23.2072617 Z M4.8728587,12.429652 C5.11356618,12.429652 5.33666091,12.5446293 5.48343377,12.7443268 C5.63020662,12.9440242 5.67130302,13.1981846 5.60085205,13.4402421 L2.33662381,24.5869894 L11.2838969,9.28290469 C11.2662841,9.28290469 6.71045481,9.28290469 6.71045481,9.28290469 L6.65174567,9.26475038 C6.22903986,9.14372163 5.97071964,8.68986384 6.08813792,8.25416036 L7.82005758,1.50075643 L0.481414956,12.429652 L4.8728587,12.429652 Z M10.4384853,16.9742814 C12.0529866,16.9742814 13.6087789,16.4659607 14.9238636,15.5098336 C15.0001855,15.4553707 15.0823783,15.3948563 15.1587002,15.3343419 C15.170442,15.322239 15.1880548,15.3101362 15.1997966,15.3040847 L15.2467639,15.2677761 C15.2937312,15.2314675 15.3406985,15.1891074 15.3876658,15.1527988 C15.4052786,15.1406959 15.4228913,15.1225416 15.4346332,15.1104387 L15.4992132,15.0559758 C15.5344387,15.0257186 15.5696642,14.9954614 15.6048897,14.9591528 C15.6225024,14.9409985 15.6401152,14.9228442 15.6577279,14.9107413 L15.716437,14.8502269 C15.7516625,14.8199697 15.7810171,14.7897126 15.8103717,14.7594554 C15.8279844,14.7413011 15.8514681,14.7170953 15.8690808,14.698941 L15.921919,14.6505295 C15.9512736,14.6202723 15.9864991,14.5839637 16.0158537,14.5537065 C16.0334664,14.5355522 16.0569501,14.5113464 16.0745628,14.4931921 L16.1215301,14.4387292 C16.1508847,14.408472 16.1802392,14.3721634 16.2095938,14.3419062 C16.2272066,14.3177005 16.2506902,14.2934947 16.268303,14.2753404 L16.3152703,14.2208775 C16.3446248,14.1906203 16.3739794,14.1543116 16.3974631,14.118003 C16.4209467,14.0937973 16.4385595,14.0635401 16.4620431,14.0393343 L16.4972686,13.9909228 C16.5266232,13.9546142 16.5501068,13.924357 16.5794614,13.8880484 C16.6029451,13.8577912 16.6205578,13.8335855 16.6381705,13.8033283 L16.6675251,13.7609682 C16.6968797,13.7246596 16.7203633,13.688351 16.7497179,13.6520424 C16.7732016,13.6217852 16.7908143,13.591528 16.8084271,13.5612708 L16.8319107,13.5249622 C16.8553944,13.4886536 16.8847489,13.4462935 16.9082326,13.4099849 C16.9258453,13.3797277 16.949329,13.3494705 16.9669417,13.3192133 L16.9904254,13.2829047 C17.013909,13.2405446 17.0432636,13.204236 17.0667473,13.1618759 C17.08436,13.1316188 17.1078437,13.0953101 17.1254564,13.065053 L17.1371982,13.0408472 C17.1665528,12.9924357 17.1900365,12.9500756 17.2135201,12.9077156 C17.2370038,12.871407 17.2546165,12.8290469 17.2722293,12.7927383 L17.2722293,12.7806354 C17.3015838,12.7382753 17.3250675,12.6898638 17.3485512,12.6475038 C17.3661639,12.6111952 17.3896476,12.5688351 17.4072603,12.5325265 L17.4072603,12.5204236 C17.4366149,12.4720121 17.4542276,12.429652 17.4777113,12.3812405 C17.495324,12.3388805 17.5188077,12.2965204 17.5364204,12.2481089 C17.5540331,12.1996974 17.5775168,12.1573374 17.5951295,12.1089259 C17.6068714,12.0847201 17.6127423,12.0605144 17.6244841,12.0363086 C17.6010005,12.0121029 17.5775168,11.9878971 17.5540331,11.9636914 C17.5305495,11.9394856 17.5070658,11.9152799 17.4835822,11.8910741 C17.4600985,11.8668684 17.430744,11.8366112 17.4072603,11.8124054 C17.3837766,11.7881997 17.360293,11.7639939 17.3368093,11.7458396 C17.3133257,11.7216339 17.2839711,11.6974281 17.2604874,11.6732224 C17.2370038,11.6490166 17.2135201,11.6308623 17.1900365,11.6066566 C17.1606819,11.5824508 17.1371982,11.5582451 17.1078437,11.5340393 C17.08436,11.5098336 17.0608764,11.4916793 17.0315218,11.4674735 C17.0021672,11.4432678 16.9786836,11.419062 16.949329,11.3948563 C16.9258453,11.3706505 16.8964908,11.3524962 16.8730071,11.3282905 C16.8436525,11.3040847 16.8201689,11.279879 16.7908143,11.2617247 C16.7673307,11.2435703 16.7379761,11.2193646 16.7144924,11.2012103 C16.6851379,11.1770045 16.6557833,11.1588502 16.6264287,11.1346445 C16.6264287,11.1346445 16.5677196,11.0922844 16.5501068,11.0741301 C16.5266232,11.0559758 16.4972686,11.0378215 16.473785,11.0136157 L16.4444304,10.9954614 C16.4268176,10.9833585 16.403334,10.9652042 16.3857212,10.9531014 C16.3622376,10.934947 16.3387539,10.9228442 16.3152703,10.9046899 L16.2800448,10.8804841 C16.262432,10.8683812 16.2389484,10.8502269 16.2213356,10.8381241 C16.197852,10.8199697 16.1684974,10.8018154 16.1450138,10.7836611 C16.1450138,10.7836611 16.0686919,10.7352496 16.0510791,10.7231467 C16.0275955,10.7049924 16.0041118,10.6928896 15.9747573,10.6747352 C15.9747573,10.6747352 15.8925645,10.6202723 15.8749517,10.6142209 C15.8397262,10.5960666 15.8103717,10.5718608 15.7751462,10.5537065 L15.6988243,10.505295 C15.6401152,10.4689864 15.581406,10.4387292 15.5226969,10.4024206 C15.510955,10.3963691 15.4522459,10.366112 15.4522459,10.366112 L15.4287622,10.3540091 C15.3994077,10.3358548 15.3700531,10.3237519 15.3406985,10.3055976 C15.3230858,10.2995461 15.2585057,10.2632375 15.2585057,10.2632375 L15.2350221,10.2511346 C15.2115384,10.2390318 15.1821839,10.2269289 15.1587002,10.214826 C15.1410875,10.2087746 15.0530237,10.1664145 15.0530237,10.1664145 C15.0295401,10.1543116 15.0001855,10.1422088 14.9767019,10.1301059 C14.9590891,10.118003 14.8651545,10.0816944 14.8651545,10.0816944 C14.8416708,10.0695915 14.8123163,10.0574887 14.7888326,10.0453858 C14.765349,10.0332829 14.7007689,10.0090772 14.7007689,10.0090772 L14.6831562,10.0090772 C14.6538016,9.99092284 14.6303179,9.97881997 14.6009634,9.9667171 C14.5774797,9.95461422 14.553996,9.94856278 14.5305124,9.93645991 L14.5011578,9.92435703 C14.4718032,9.91225416 14.4424487,9.90015129 14.4130941,9.88804841 C14.3896104,9.87594554 14.3250304,9.85173979 14.3250304,9.85173979 C14.2898049,9.83963691 14.2604503,9.82753404 14.2252249,9.81543116 C14.1958703,9.80332829 14.1665157,9.79727685 14.1371611,9.78517398 C14.1019357,9.7730711 14.0667102,9.76096823 14.0314847,9.74886536 C14.0021301,9.73676248 13.9727755,9.73071104 13.9375501,9.71860817 C13.9023246,9.7065053 13.8670991,9.69440242 13.8377445,9.68835098 C13.80839,9.67624811 13.7731645,9.67019667 13.7438099,9.6580938 C13.7085844,9.64599092 13.6733589,9.63993949 13.6440044,9.62783661 C13.6146498,9.62178517 13.5794243,9.6096823 13.5500697,9.60363086 C13.5148442,9.59152799 13.4796188,9.58547655 13.4443933,9.57337368 C13.4150387,9.56732224 13.3798132,9.55521936 13.3504587,9.54916793 C13.3152332,9.54311649 13.2800077,9.53101362 13.2447822,9.52496218 C13.2154276,9.51891074 13.1802021,9.5128593 13.1508476,9.50075643 C13.1156221,9.49470499 13.0803966,9.48260212 13.0451711,9.47655068 C13.0099456,9.47049924 12.9805911,9.46444781 12.9512365,9.45839637 C12.916011,9.45234493 12.8807855,9.44629349 12.84556,9.44024206 L12.8338182,9.44024206 C12.8044636,9.43419062 12.78098,9.42813918 12.7516254,9.42208775 C12.7163999,9.41603631 12.6811744,9.40998487 12.640078,9.40393343 L12.6224653,9.40393343 C12.5989816,9.397882 12.5696271,9.39183056 12.5461434,9.39183056 C12.5109179,9.39183056 12.4815634,9.37972769 12.4463379,9.37972769 C12.4463379,9.37972769 12.3641451,9.36762481 12.3406614,9.36762481 C12.3171778,9.36762481 12.2878232,9.36157337 12.2643395,9.35552194 L7.80244483,16.9863843 L10.4267434,16.9863843 L10.4384853,16.9742814 Z M12.2702105,8.43570348 C12.4169833,8.44780635 12.5696271,8.46596067 12.7163999,8.49016641 C12.7927218,8.50226929 12.8631728,8.51437216 12.9394947,8.52647504 L12.9512365,8.52647504 C13.0216875,8.54462935 13.0921384,8.55673222 13.1567185,8.5688351 C13.1743312,8.5688351 13.1860731,8.57488654 13.2036858,8.58093797 L13.2330404,8.58093797 C13.2800077,8.59909228 13.326975,8.60514372 13.3739423,8.6172466 C13.3915551,8.6172466 13.4796188,8.64145234 13.4796188,8.64145234 C13.5148442,8.64750378 13.5559406,8.65960666 13.5911661,8.66565809 C13.6087789,8.66565809 13.6968426,8.68986384 13.6968426,8.68986384 C13.7320681,8.70196672 13.7731645,8.70801815 13.80839,8.72012103 C13.8318736,8.72617247 13.8553573,8.7322239 13.8788409,8.73827534 L13.9023246,8.73827534 C13.943421,8.75642965 13.9845174,8.76853253 14.0197429,8.7806354 C14.0490974,8.78668684 14.0725811,8.79878971 14.1019357,8.80484115 L14.1254193,8.80484115 C14.1606448,8.82299546 14.1958703,8.83509834 14.2310958,8.84720121 C14.2604503,8.85930408 14.2956758,8.86535552 14.3250304,8.8774584 C14.3661268,8.88956127 14.4013523,8.90166415 14.4424487,8.91981846 C14.4718032,8.93192133 14.5070287,8.94402421 14.5363833,8.95612708 C14.5716088,8.96822995 14.6127052,8.98638427 14.6479307,8.99848714 C14.6772852,9.01059002 14.7125107,9.02269289 14.7418653,9.03479576 C14.7770908,9.04689864 14.8181872,9.06505295 14.8534127,9.07715582 C14.8827672,9.0892587 14.9179927,9.10136157 14.9473473,9.11346445 C14.9825728,9.13161876 15.0236692,9.14372163 15.0588947,9.16187595 C15.0882492,9.17397882 15.1234747,9.18608169 15.1528293,9.20423601 C15.1880548,9.22239032 15.2291512,9.24054463 15.2643766,9.2526475 C15.2643766,9.2526475 15.3289567,9.28290469 15.3524404,9.29500756 C15.3876658,9.31316188 15.4287622,9.33131619 15.4639877,9.3494705 C15.4639877,9.3494705 15.5285678,9.37972769 15.5520514,9.39183056 C15.5872769,9.40998487 15.6283733,9.42813918 15.6635988,9.45234493 C15.6635988,9.45234493 15.7281789,9.48260212 15.7516625,9.49470499 C15.786888,9.5128593 15.8221135,9.53101362 15.857339,9.55521936 C15.857339,9.55521936 15.9277899,9.59152799 15.9454027,9.60363086 C15.9806282,9.62178517 16.0217246,9.64599092 16.0569501,9.67019667 C16.0569501,9.67019667 16.1215301,9.7065053 16.1391428,9.71860817 C16.1743683,9.74281392 16.2095938,9.76096823 16.2506902,9.78517398 C16.2506902,9.78517398 16.3211412,9.82753404 16.332883,9.83358548 C16.3798503,9.86384266 16.4268176,9.89409985 16.473785,9.92435703 L16.5207523,9.95461422 C16.5853323,9.99697428 16.6440415,10.0393343 16.7086215,10.0816944 L16.7203633,10.0816944 C16.7790725,10.1301059 16.8377816,10.172466 16.8964908,10.2087746 C16.9082326,10.214826 16.9610708,10.2571861 16.9610708,10.2571861 C17.0021672,10.2874433 17.0373927,10.3177005 17.0784891,10.3419062 C17.0961018,10.3540091 17.154811,10.3963691 17.154811,10.3963691 C17.1900365,10.4205749 17.225262,10.4508321 17.2604874,10.4750378 C17.2781002,10.4871407 17.3309384,10.5355522 17.3309384,10.5355522 C17.3661639,10.5658094 17.4013894,10.5900151 17.4366149,10.6202723 C17.4542276,10.6323752 17.5070658,10.6807867 17.5070658,10.6807867 C17.5422913,10.7110439 17.5716459,10.7352496 17.6068714,10.7655068 C17.6244841,10.7836611 17.6831933,10.8320726 17.6831933,10.8320726 C17.7125478,10.8623298 17.7477733,10.8865356 17.7771279,10.9167927 C17.8006115,10.9409985 17.8240952,10.9591528 17.8475789,10.9833585 C17.8769334,11.0136157 17.9121589,11.0438729 17.9415135,11.0741301 C18.1528664,10.2934947 18.2409301,9.48260212 18.2174464,8.65960666 C18.1469955,6.56580938 17.2781002,4.61119516 15.7575334,3.15279879 C14.2487085,1.7065053 12.2819523,0.907715582 10.2153905,0.907715582 L8.87682211,0.907715582 L6.96290412,8.36913767 L10.8788038,8.36913767 C11.342606,8.36913767 11.8064082,8.38729198 12.2702105,8.42965204 L12.2702105,8.43570348 Z M0.886508028,10.2329803 L2.06656176,8.47806354 C2.06656176,8.47806354 2.02546536,8.45385779 2.02546536,8.45385779 C2.01372353,8.44780635 2.00198171,8.43570348 1.99023988,8.42965204 C1.94914348,8.39939486 1.90804708,8.36913767 1.8728216,8.33888048 L1.86107977,8.33888048 C1.85520885,8.32677761 1.84933794,8.32072617 1.83759611,8.31467474 C1.7906288,8.27836611 1.74366149,8.23600605 1.69669417,8.19969743 C1.68495235,8.19364599 1.65559777,8.1633888 1.65559777,8.1633888 C1.62037229,8.13313162 1.59101772,8.10892587 1.55579224,8.07866868 C1.54405041,8.06656581 1.53230858,8.05446293 1.52056675,8.04236006 L1.50295401,8.03025719 C1.47359944,8.00605144 1.45011578,7.97579425 1.42076121,7.9515885 C1.40901938,7.93948563 1.39140664,7.92133132 1.37966481,7.90922844 L1.36792298,7.89712557 C1.34443933,7.87291982 1.31508476,7.84871407 1.2916011,7.81845688 C1.27398836,7.80030257 1.26224653,7.7881997 1.2505047,7.77004539 L1.23876287,7.75794251 C1.21527922,7.73373676 1.19179556,7.70347958 1.16831191,7.67927383 C1.15069916,7.66111952 1.13308642,7.63691377 1.11547368,7.61875946 C1.09199002,7.59455371 1.07437728,7.56429652 1.05089362,7.54009077 C1.03328088,7.51588502 1.01566814,7.49773071 1.00392631,7.47352496 C0.980442654,7.44326778 0.962829912,7.41906203 0.939346255,7.38880484 C0.921733513,7.36459909 0.909991685,7.34644478 0.892378943,7.32223903 C0.892378943,7.32223903 0.886508028,7.31013616 0.880637114,7.31013616 L0.880637114,10.2329803 L0.886508028,10.2329803 Z M4.10963987,0.907715582 C2.33662381,0.907715582 0.886508028,2.39636914 0.886508028,4.22995461 L0.886508028,4.51437216 C0.886508028,4.55673222 0.886508028,4.60514372 0.886508028,4.64750378 L0.886508028,4.70196672 C0.886508028,4.72617247 0.886508028,4.75037821 0.892378943,4.77458396 L0.892378943,4.84114977 C0.898249857,4.86535552 0.898249857,4.88350983 0.904120771,4.90771558 L0.904120771,4.97428139 C0.915862599,4.9924357 0.915862599,5.01664145 0.921733513,5.03479576 C0.921733513,5.04689864 0.921733513,5.06505295 0.927604427,5.07715582 L0.927604427,5.0892587 C0.927604427,5.11346445 0.939346255,5.1376702 0.939346255,5.16187595 C0.939346255,5.17397882 0.951088084,5.21633888 0.951088084,5.21633888 C0.951088084,5.24054463 0.956958998,5.26475038 0.962829912,5.28895613 C0.962829912,5.301059 0.97457174,5.34341906 0.97457174,5.34341906 C0.97457174,5.36762481 0.986313568,5.39183056 0.992184482,5.40998487 C0.992184482,5.42813918 0.998055396,5.44629349 1.00392631,5.45839637 L1.00392631,5.47049924 C1.00979722,5.48865356 1.01566814,5.5128593 1.02153905,5.53101362 C1.02153905,5.54916793 1.03328088,5.56732224 1.03915179,5.58547655 C1.04502271,5.6096823 1.05089362,5.62783661 1.05676454,5.65204236 C1.05676454,5.67019667 1.06850637,5.68835098 1.07437728,5.7065053 C1.08024819,5.73071104 1.08611911,5.74886536 1.09786094,5.7730711 C1.10373185,5.79122542 1.10960276,5.80937973 1.11547368,5.82753404 C1.12134459,5.85173979 1.13308642,5.8698941 1.13895733,5.89409985 C1.14482825,5.91225416 1.15069916,5.93040847 1.16244099,5.94856278 C1.16831191,5.97276853 1.18005373,5.99092284 1.18592465,6.01512859 C1.19179556,6.0332829 1.20353739,6.05143722 1.2094083,6.06959153 C1.22115013,6.09379728 1.22702105,6.11195159 1.23876287,6.1301059 C1.24463379,6.14826021 1.25637562,6.16641452 1.26224653,6.18456884 C1.27398836,6.20272315 1.27985927,6.2269289 1.2916011,6.24508321 C1.29747202,6.26323752 1.30921384,6.28139183 1.31508476,6.29954614 C1.32682659,6.31770045 1.33856841,6.3419062 1.34443933,6.36006051 C1.35618116,6.37821483 1.36205207,6.39636914 1.3737939,6.40847201 C1.38553573,6.42662632 1.39727755,6.45083207 1.40901938,6.46898638 C1.40901938,6.46898638 1.43250304,6.50529501 1.43837395,6.51739788 C1.45011578,6.53555219 1.46185761,6.55370651 1.47359944,6.57186082 L1.47359944,6.57186082 C1.48534127,6.59606657 1.49121218,6.60816944 1.50295401,6.62632375 C1.51469584,6.64447806 1.52643766,6.66263238 1.54405041,6.68683812 C1.54405041,6.68683812 1.56753406,6.72314675 1.57340498,6.73524962 C1.58514681,6.75340393 1.59688863,6.76550681 1.60275955,6.78366112 L1.64385595,6.83812405 C1.65559777,6.85627837 1.6673396,6.87443268 1.68495235,6.88653555 C1.68495235,6.88653555 1.71430692,6.92889561 1.72017783,6.93494705 C1.73191966,6.95310136 1.7495324,6.97125567 1.76127423,6.98335855 L1.80237063,7.03177005 C1.81998337,7.04992436 1.83759611,7.06807867 1.85520885,7.09228442 L1.88456342,7.12859304 C1.90804708,7.15279879 1.93153074,7.17700454 1.95501439,7.20726172 L1.97262714,7.22541604 C2.00198171,7.25567322 2.03133628,7.28593041 2.06069085,7.31618759 L2.07243268,7.32829047 C2.10178725,7.35249622 2.1252709,7.37670197 2.15462547,7.40695915 L2.18398004,7.4311649 C2.2074637,7.44931921 2.22507644,7.46747352 2.2485601,7.49167927 L2.28378558,7.52193646 C2.30726924,7.54009077 2.32488198,7.55824508 2.34836564,7.57034796 L2.40120387,7.60665658 C2.41881661,7.61875946 2.43642935,7.63086233 2.45404209,7.6429652 L2.50688032,7.67927383 C2.52449306,7.6913767 2.5421058,7.70347958 2.55971855,7.71558245 C2.55971855,7.71558245 2.57146037,7.72163389 2.57146037,7.72768533 L7.14490245,0.907715582 L4.10376895,0.907715582 L4.10963987,0.907715582 Z" id="Shape"></path>
                </g>
            </g>
        </g>
    </g>
</svg>