<?xml version="1.0" encoding="UTF-8"?>
<svg width="27px" height="14px" viewBox="0 0 27 14" version="1.1" xmlns="http://www.w3.org/2000/svg" xmlns:xlink="http://www.w3.org/1999/xlink">
    <title>Fill 1</title>
    <g id="Project-Pages" stroke="none" stroke-width="1" fill="none" fill-rule="evenodd">
        <g id="Profile-Dark-Version" transform="translate(-896, -1347)" fill="#FFFFFF">
            <g id="Soundcloud-Pod" transform="translate(491, 1328)">
                <g id="Group-3" transform="translate(405, 19)">
                    <path d="M23.5160173,6.53313731 L22.5670572,6.53313731 C22.6150959,6.22848408 22.6450216,5.91974704 22.6450216,5.60039205 C22.6450216,2.50648745 20.3053035,-0.000163352936 17.4190475,-0.000163352936 C15.8534603,-0.000163352936 14.4571896,0.747176328 13.4995669,1.91760011 L13.4995669,14 L23.5160173,14 C25.4391379,14 27,12.3288995 27,10.2649351 C27,8.20342108 25.4391379,6.53313731 23.5160173,6.53313731 L23.5160173,6.53313731 Z M10.1250492,14 L11.8127018,14 L11.8127018,3.46536918 C11.3079023,3.13866331 10.7369513,2.92303743 10.1250492,2.8405442 L10.1250492,14 Z M-7.87518702e-05,10.2657519 C-7.87518702e-05,11.6207645 0.680337408,12.7960889 1.68757383,13.4511341 L1.68757383,7.08281994 C0.680337408,7.73704845 -7.87518702e-05,8.91237282 -7.87518702e-05,10.2657519 L-7.87518702e-05,10.2657519 Z M3.37522641,6.54457202 L3.37522641,13.9877485 L3.48390399,14 L5.06209147,14 L5.06209147,6.53313731 L3.48390399,6.53313731 C3.48390399,6.53313731 3.37522641,6.54457202 3.37522641,6.54457202 L3.37522641,6.54457202 Z M6.74974406,14 L8.43739664,14 L8.43739664,2.97939419 C7.8042316,3.16479978 7.23406806,3.50212359 6.74974406,3.94481004 L6.74974406,14 Z" id="Fill-1"></path>
                </g>
            </g>
        </g>
    </g>
</svg>